# MagicaVoxel @ Ephtracy

# group
g clock

# material
mtllib clock.mtl
usemtl palette

# normals
vn -1 0 0
vn 1 0 0
vn 0 0 1
vn 0 0 -1
vn 0 -1 0
vn 0 1 0

# texcoords
vt 0.373047 0.5
vt 0.748047 0.5
vt 0.841797 0.5
vt 0.955078 0.5
vt 0.958984 0.5

# verts
v -10.5 7 -0.5
v -10.5 7 -1.5
v -10.5 14 -0.5
v -10.5 14 -1.5
v -9.5 5 -0.5
v -9.5 5 -1.5
v -9.5 7 -0.5
v -9.5 7 -1.5
v -9.5 14 -0.5
v -9.5 14 -1.5
v -9.5 16 -0.5
v -9.5 16 -1.5
v -8.5 4 -0.5
v -8.5 4 -1.5
v -8.5 5 -0.5
v -8.5 5 -1.5
v -8.5 16 -0.5
v -8.5 16 -1.5
v -8.5 17 -0.5
v -8.5 17 -1.5
v -7.5 3 -0.5
v -7.5 3 -1.5
v -7.5 4 -0.5
v -7.5 4 -1.5
v -7.5 17 -0.5
v -7.5 17 -1.5
v -7.5 18 -0.5
v -7.5 18 -1.5
v -6.5 2 -0.5
v -6.5 2 -1.5
v -6.5 3 -0.5
v -6.5 3 -1.5
v -6.5 18 -0.5
v -6.5 18 -1.5
v -6.5 19 -0.5
v -6.5 19 -1.5
v -5.5 1 -0.5
v -5.5 1 -1.5
v -5.5 2 -0.5
v -5.5 2 -1.5
v -5.5 19 -0.5
v -5.5 19 -1.5
v -5.5 20 -0.5
v -5.5 20 -1.5
v -3.5 0 -0.5
v -3.5 0 -1.5
v -3.5 1 -0.5
v -3.5 1 -1.5
v -3.5 20 -0.5
v -3.5 20 -1.5
v -3.5 21 -0.5
v -3.5 21 -1.5
v 3.5 0 -0.5
v 3.5 0 -1.5
v 3.5 1 -0.5
v 3.5 1 -1.5
v 3.5 20 -0.5
v 3.5 20 -1.5
v 3.5 21 -0.5
v 3.5 21 -1.5
v 5.5 1 -0.5
v 5.5 1 -1.5
v 5.5 2 -0.5
v 5.5 2 -1.5
v 5.5 19 -0.5
v 5.5 19 -1.5
v 5.5 20 -0.5
v 5.5 20 -1.5
v 6.5 2 -0.5
v 6.5 2 -1.5
v 6.5 3 -0.5
v 6.5 3 -1.5
v 6.5 18 -0.5
v 6.5 18 -1.5
v 6.5 19 -0.5
v 6.5 19 -1.5
v 7.5 3 -0.5
v 7.5 3 -1.5
v 7.5 4 -0.5
v 7.5 4 -1.5
v 7.5 17 -0.5
v 7.5 17 -1.5
v 7.5 18 -0.5
v 7.5 18 -1.5
v 8.5 4 -0.5
v 8.5 4 -1.5
v 8.5 5 -0.5
v 8.5 5 -1.5
v 8.5 16 -0.5
v 8.5 16 -1.5
v 8.5 17 -0.5
v 8.5 17 -1.5
v 9.5 5 -0.5
v 9.5 5 -1.5
v 9.5 7 -0.5
v 9.5 7 -1.5
v 9.5 14 -0.5
v 9.5 14 -1.5
v 9.5 16 -0.5
v 9.5 16 -1.5
v 10.5 7 -0.5
v 10.5 7 -1.5
v 10.5 14 -0.5
v 10.5 14 -1.5
v -10.5 7 -0.5
v -10.5 14 -0.5
v -9.5 5 -0.5
v -9.5 7 -0.5
v -9.5 14 -0.5
v -9.5 16 -0.5
v -8.5 4 -0.5
v -8.5 5 -0.5
v -8.5 7 -0.5
v -8.5 8 -0.5
v -8.5 9 -0.5
v -8.5 10 -0.5
v -8.5 13 -0.5
v -8.5 14 -0.5
v -8.5 16 -0.5
v -8.5 17 -0.5
v -7.5 3 -0.5
v -7.5 4 -0.5
v -7.5 5 -0.5
v -7.5 11 -0.5
v -7.5 12 -0.5
v -7.5 16 -0.5
v -7.5 17 -0.5
v -7.5 18 -0.5
v -6.5 2 -0.5
v -6.5 3 -0.5
v -6.5 4 -0.5
v -6.5 9 -0.5
v -6.5 10 -0.5
v -6.5 11 -0.5
v -6.5 12 -0.5
v -6.5 17 -0.5
v -6.5 18 -0.5
v -6.5 19 -0.5
v -5.5 1 -0.5
v -5.5 2 -0.5
v -5.5 3 -0.5
v -5.5 8 -0.5
v -5.5 13 -0.5
v -5.5 18 -0.5
v -5.5 19 -0.5
v -5.5 20 -0.5
v -4.5 16 -0.5
v -4.5 18 -0.5
v -3.5 0 -0.5
v -3.5 1 -0.5
v -3.5 2 -0.5
v -3.5 14 -0.5
v -3.5 16 -0.5
v -3.5 18 -0.5
v -3.5 19 -0.5
v -3.5 20 -0.5
v -3.5 21 -0.5
v -2.5 12 -0.5
v -2.5 14 -0.5
v -2.5 16 -0.5
v -1.5 2 -0.5
v -1.5 7 -0.5
v -1.5 10 -0.5
v -1.5 12 -0.5
v -1.5 14 -0.5
v -1.5 15 -0.5
v -1.5 19 -0.5
v -0.5 3 -0.5
v -0.5 4 -0.5
v -0.5 5 -0.5
v -0.5 6 -0.5
v -0.5 10 -0.5
v -0.5 11 -0.5
v -0.5 12 -0.5
v -0.5 15 -0.5
v -0.5 16 -0.5
v -0.5 19 -0.5
v 0.5 3 -0.5
v 0.5 4 -0.5
v 0.5 10 -0.5
v 0.5 11 -0.5
v 0.5 15 -0.5
v 0.5 16 -0.5
v 0.5 17 -0.5
v 0.5 18 -0.5
v 0.5 19 -0.5
v 1.5 2 -0.5
v 1.5 5 -0.5
v 1.5 6 -0.5
v 1.5 7 -0.5
v 1.5 16 -0.5
v 1.5 17 -0.5
v 1.5 18 -0.5
v 2.5 15 -0.5
v 2.5 16 -0.5
v 2.5 17 -0.5
v 2.5 19 -0.5
v 3.5 0 -0.5
v 3.5 1 -0.5
v 3.5 2 -0.5
v 3.5 19 -0.5
v 3.5 20 -0.5
v 3.5 21 -0.5
v 5.5 1 -0.5
v 5.5 2 -0.5
v 5.5 3 -0.5
v 5.5 8 -0.5
v 5.5 9 -0.5
v 5.5 12 -0.5
v 5.5 13 -0.5
v 5.5 18 -0.5
v 5.5 19 -0.5
v 5.5 20 -0.5
v 6.5 2 -0.5
v 6.5 3 -0.5
v 6.5 4 -0.5
v 6.5 10 -0.5
v 6.5 11 -0.5
v 6.5 17 -0.5
v 6.5 18 -0.5
v 6.5 19 -0.5
v 7.5 3 -0.5
v 7.5 4 -0.5
v 7.5 5 -0.5
v 7.5 9 -0.5
v 7.5 10 -0.5
v 7.5 11 -0.5
v 7.5 12 -0.5
v 7.5 16 -0.5
v 7.5 17 -0.5
v 7.5 18 -0.5
v 8.5 4 -0.5
v 8.5 5 -0.5
v 8.5 7 -0.5
v 8.5 8 -0.5
v 8.5 13 -0.5
v 8.5 14 -0.5
v 8.5 16 -0.5
v 8.5 17 -0.5
v 9.5 5 -0.5
v 9.5 7 -0.5
v 9.5 14 -0.5
v 9.5 16 -0.5
v 10.5 7 -0.5
v 10.5 14 -0.5
v -10.5 7 -1.5
v -10.5 14 -1.5
v -9.5 5 -1.5
v -9.5 7 -1.5
v -9.5 14 -1.5
v -9.5 16 -1.5
v -8.5 4 -1.5
v -8.5 5 -1.5
v -8.5 7 -1.5
v -8.5 8 -1.5
v -8.5 9 -1.5
v -8.5 10 -1.5
v -8.5 13 -1.5
v -8.5 14 -1.5
v -8.5 16 -1.5
v -8.5 17 -1.5
v -7.5 3 -1.5
v -7.5 4 -1.5
v -7.5 5 -1.5
v -7.5 11 -1.5
v -7.5 12 -1.5
v -7.5 16 -1.5
v -7.5 17 -1.5
v -7.5 18 -1.5
v -6.5 2 -1.5
v -6.5 3 -1.5
v -6.5 4 -1.5
v -6.5 9 -1.5
v -6.5 10 -1.5
v -6.5 11 -1.5
v -6.5 12 -1.5
v -6.5 17 -1.5
v -6.5 18 -1.5
v -6.5 19 -1.5
v -5.5 1 -1.5
v -5.5 2 -1.5
v -5.5 3 -1.5
v -5.5 8 -1.5
v -5.5 13 -1.5
v -5.5 18 -1.5
v -5.5 19 -1.5
v -5.5 20 -1.5
v -4.5 16 -1.5
v -4.5 18 -1.5
v -3.5 0 -1.5
v -3.5 1 -1.5
v -3.5 2 -1.5
v -3.5 14 -1.5
v -3.5 16 -1.5
v -3.5 18 -1.5
v -3.5 19 -1.5
v -3.5 20 -1.5
v -3.5 21 -1.5
v -2.5 12 -1.5
v -2.5 14 -1.5
v -2.5 16 -1.5
v -1.5 2 -1.5
v -1.5 7 -1.5
v -1.5 10 -1.5
v -1.5 12 -1.5
v -1.5 14 -1.5
v -1.5 15 -1.5
v -1.5 19 -1.5
v -0.5 3 -1.5
v -0.5 4 -1.5
v -0.5 5 -1.5
v -0.5 6 -1.5
v -0.5 10 -1.5
v -0.5 11 -1.5
v -0.5 12 -1.5
v -0.5 15 -1.5
v -0.5 16 -1.5
v -0.5 19 -1.5
v 0.5 3 -1.5
v 0.5 4 -1.5
v 0.5 10 -1.5
v 0.5 11 -1.5
v 0.5 15 -1.5
v 0.5 16 -1.5
v 0.5 17 -1.5
v 0.5 18 -1.5
v 0.5 19 -1.5
v 1.5 2 -1.5
v 1.5 5 -1.5
v 1.5 6 -1.5
v 1.5 7 -1.5
v 1.5 16 -1.5
v 1.5 17 -1.5
v 1.5 18 -1.5
v 2.5 15 -1.5
v 2.5 16 -1.5
v 2.5 17 -1.5
v 2.5 19 -1.5
v 3.5 0 -1.5
v 3.5 1 -1.5
v 3.5 2 -1.5
v 3.5 19 -1.5
v 3.5 20 -1.5
v 3.5 21 -1.5
v 5.5 1 -1.5
v 5.5 2 -1.5
v 5.5 3 -1.5
v 5.5 8 -1.5
v 5.5 9 -1.5
v 5.5 12 -1.5
v 5.5 13 -1.5
v 5.5 18 -1.5
v 5.5 19 -1.5
v 5.5 20 -1.5
v 6.5 2 -1.5
v 6.5 3 -1.5
v 6.5 4 -1.5
v 6.5 10 -1.5
v 6.5 11 -1.5
v 6.5 17 -1.5
v 6.5 18 -1.5
v 6.5 19 -1.5
v 7.5 3 -1.5
v 7.5 4 -1.5
v 7.5 5 -1.5
v 7.5 9 -1.5
v 7.5 10 -1.5
v 7.5 11 -1.5
v 7.5 12 -1.5
v 7.5 16 -1.5
v 7.5 17 -1.5
v 7.5 18 -1.5
v 8.5 4 -1.5
v 8.5 5 -1.5
v 8.5 7 -1.5
v 8.5 8 -1.5
v 8.5 13 -1.5
v 8.5 14 -1.5
v 8.5 16 -1.5
v 8.5 17 -1.5
v 9.5 5 -1.5
v 9.5 7 -1.5
v 9.5 14 -1.5
v 9.5 16 -1.5
v 10.5 7 -1.5
v 10.5 14 -1.5
v -3.5 0 -0.5
v 3.5 0 -0.5
v -3.5 0 -1.5
v 3.5 0 -1.5
v -5.5 1 -0.5
v -3.5 1 -0.5
v 3.5 1 -0.5
v 5.5 1 -0.5
v -5.5 1 -1.5
v -3.5 1 -1.5
v 3.5 1 -1.5
v 5.5 1 -1.5
v -6.5 2 -0.5
v -5.5 2 -0.5
v 5.5 2 -0.5
v 6.5 2 -0.5
v -6.5 2 -1.5
v -5.5 2 -1.5
v 5.5 2 -1.5
v 6.5 2 -1.5
v -7.5 3 -0.5
v -6.5 3 -0.5
v 6.5 3 -0.5
v 7.5 3 -0.5
v -7.5 3 -1.5
v -6.5 3 -1.5
v 6.5 3 -1.5
v 7.5 3 -1.5
v -8.5 4 -0.5
v -7.5 4 -0.5
v 7.5 4 -0.5
v 8.5 4 -0.5
v -8.5 4 -1.5
v -7.5 4 -1.5
v 7.5 4 -1.5
v 8.5 4 -1.5
v -9.5 5 -0.5
v -8.5 5 -0.5
v 8.5 5 -0.5
v 9.5 5 -0.5
v -9.5 5 -1.5
v -8.5 5 -1.5
v 8.5 5 -1.5
v 9.5 5 -1.5
v -10.5 7 -0.5
v -9.5 7 -0.5
v 9.5 7 -0.5
v 10.5 7 -0.5
v -10.5 7 -1.5
v -9.5 7 -1.5
v 9.5 7 -1.5
v 10.5 7 -1.5
v -10.5 14 -0.5
v -9.5 14 -0.5
v 9.5 14 -0.5
v 10.5 14 -0.5
v -10.5 14 -1.5
v -9.5 14 -1.5
v 9.5 14 -1.5
v 10.5 14 -1.5
v -9.5 16 -0.5
v -8.5 16 -0.5
v 8.5 16 -0.5
v 9.5 16 -0.5
v -9.5 16 -1.5
v -8.5 16 -1.5
v 8.5 16 -1.5
v 9.5 16 -1.5
v -8.5 17 -0.5
v -7.5 17 -0.5
v 7.5 17 -0.5
v 8.5 17 -0.5
v -8.5 17 -1.5
v -7.5 17 -1.5
v 7.5 17 -1.5
v 8.5 17 -1.5
v -7.5 18 -0.5
v -6.5 18 -0.5
v 6.5 18 -0.5
v 7.5 18 -0.5
v -7.5 18 -1.5
v -6.5 18 -1.5
v 6.5 18 -1.5
v 7.5 18 -1.5
v -6.5 19 -0.5
v -5.5 19 -0.5
v 5.5 19 -0.5
v 6.5 19 -0.5
v -6.5 19 -1.5
v -5.5 19 -1.5
v 5.5 19 -1.5
v 6.5 19 -1.5
v -5.5 20 -0.5
v -3.5 20 -0.5
v 3.5 20 -0.5
v 5.5 20 -0.5
v -5.5 20 -1.5
v -3.5 20 -1.5
v 3.5 20 -1.5
v 5.5 20 -1.5
v -3.5 21 -0.5
v 3.5 21 -0.5
v -3.5 21 -1.5
v 3.5 21 -1.5

# faces
f 3/1/1 2/1/1 1/1/1
f 4/1/1 2/1/1 3/1/1
f 7/1/1 6/1/1 5/1/1
f 8/1/1 6/1/1 7/1/1
f 11/1/1 10/1/1 9/1/1
f 12/1/1 10/1/1 11/1/1
f 15/1/1 14/1/1 13/1/1
f 16/1/1 14/1/1 15/1/1
f 19/1/1 18/1/1 17/1/1
f 20/1/1 18/1/1 19/1/1
f 23/1/1 22/1/1 21/1/1
f 24/1/1 22/1/1 23/1/1
f 27/1/1 26/1/1 25/1/1
f 28/1/1 26/1/1 27/1/1
f 31/1/1 30/1/1 29/1/1
f 32/1/1 30/1/1 31/1/1
f 35/1/1 34/1/1 33/1/1
f 36/1/1 34/1/1 35/1/1
f 39/1/1 38/1/1 37/1/1
f 40/1/1 38/1/1 39/1/1
f 43/1/1 42/1/1 41/1/1
f 44/1/1 42/1/1 43/1/1
f 47/1/1 46/1/1 45/1/1
f 48/1/1 46/1/1 47/1/1
f 51/1/1 50/1/1 49/1/1
f 52/1/1 50/1/1 51/1/1
f 53/1/2 54/1/2 55/1/2
f 55/1/2 54/1/2 56/1/2
f 57/1/2 58/1/2 59/1/2
f 59/1/2 58/1/2 60/1/2
f 61/1/2 62/1/2 63/1/2
f 63/1/2 62/1/2 64/1/2
f 65/1/2 66/1/2 67/1/2
f 67/1/2 66/1/2 68/1/2
f 69/1/2 70/1/2 71/1/2
f 71/1/2 70/1/2 72/1/2
f 73/1/2 74/1/2 75/1/2
f 75/1/2 74/1/2 76/1/2
f 77/1/2 78/1/2 79/1/2
f 79/1/2 78/1/2 80/1/2
f 81/1/2 82/1/2 83/1/2
f 83/1/2 82/1/2 84/1/2
f 85/1/2 86/1/2 87/1/2
f 87/1/2 86/1/2 88/1/2
f 89/1/2 90/1/2 91/1/2
f 91/1/2 90/1/2 92/1/2
f 93/1/2 94/1/2 95/1/2
f 95/1/2 94/1/2 96/1/2
f 97/1/2 98/1/2 99/1/2
f 99/1/2 98/1/2 100/1/2
f 101/1/2 102/1/2 103/1/2
f 103/1/2 102/1/2 104/1/2
f 108/1/3 106/1/3 105/1/3
f 109/1/3 106/1/3 108/1/3
f 112/1/3 108/1/3 107/1/3
f 113/5/3 109/5/3 108/5/3
f 113/1/3 108/1/3 112/1/3
f 114/5/3 109/5/3 113/5/3
f 115/5/3 109/5/3 114/5/3
f 116/5/3 109/5/3 115/5/3
f 117/5/3 109/5/3 116/5/3
f 118/1/3 110/1/3 109/1/3
f 118/5/3 109/5/3 117/5/3
f 119/1/3 110/1/3 118/1/3
f 122/1/3 112/1/3 111/1/3
f 123/5/3 113/5/3 112/5/3
f 123/5/3 114/5/3 113/5/3
f 123/1/3 112/1/3 122/1/3
f 124/4/3 117/4/3 116/4/3
f 125/4/3 117/4/3 124/4/3
f 126/1/3 120/1/3 119/1/3
f 126/5/3 118/5/3 117/5/3
f 126/5/3 119/5/3 118/5/3
f 127/1/3 120/1/3 126/1/3
f 130/1/3 122/1/3 121/1/3
f 131/5/3 123/5/3 122/5/3
f 131/1/3 122/1/3 130/1/3
f 132/4/3 115/4/3 114/4/3
f 132/5/3 116/5/3 115/5/3
f 133/4/3 124/4/3 116/4/3
f 133/5/3 116/5/3 132/5/3
f 134/5/3 125/5/3 124/5/3
f 134/4/3 124/4/3 133/4/3
f 135/4/3 117/4/3 125/4/3
f 135/5/3 125/5/3 134/5/3
f 136/1/3 128/1/3 127/1/3
f 136/5/3 127/5/3 126/5/3
f 137/1/3 128/1/3 136/1/3
f 140/1/3 130/1/3 129/1/3
f 141/5/3 131/5/3 130/5/3
f 141/1/3 130/1/3 140/1/3
f 142/5/3 114/5/3 123/5/3
f 142/5/3 131/5/3 141/5/3
f 142/4/3 134/4/3 133/4/3
f 142/5/3 123/5/3 131/5/3
f 142/4/3 133/4/3 132/4/3
f 142/4/3 132/4/3 114/4/3
f 142/4/3 135/4/3 134/4/3
f 143/4/3 117/4/3 135/4/3
f 143/4/3 135/4/3 142/4/3
f 143/5/3 137/5/3 136/5/3
f 143/5/3 126/5/3 117/5/3
f 143/5/3 136/5/3 126/5/3
f 144/1/3 138/1/3 137/1/3
f 144/5/3 137/5/3 143/5/3
f 145/1/3 138/1/3 144/1/3
f 147/5/3 141/5/3 140/5/3
f 147/5/3 142/5/3 141/5/3
f 147/5/3 145/5/3 144/5/3
f 147/5/3 144/5/3 143/5/3
f 147/5/3 143/5/3 142/5/3
f 148/5/3 145/5/3 147/5/3
f 150/1/3 140/1/3 139/1/3
f 151/5/3 147/5/3 140/5/3
f 151/1/3 140/1/3 150/1/3
f 152/5/3 147/5/3 151/5/3
f 153/2/3 148/2/3 147/2/3
f 153/5/3 147/5/3 152/5/3
f 154/5/3 145/5/3 148/5/3
f 154/2/3 148/2/3 153/2/3
f 155/1/3 146/1/3 145/1/3
f 155/5/3 145/5/3 154/5/3
f 156/1/3 146/1/3 155/1/3
f 158/5/3 152/5/3 151/5/3
f 158/5/3 151/5/3 150/5/3
f 159/2/3 153/2/3 152/2/3
f 159/5/3 152/5/3 158/5/3
f 160/5/3 154/5/3 153/5/3
f 160/2/3 153/2/3 159/2/3
f 160/5/3 156/5/3 155/5/3
f 160/5/3 155/5/3 154/5/3
f 161/5/3 158/5/3 150/5/3
f 162/5/3 158/5/3 161/5/3
f 163/5/3 158/5/3 162/5/3
f 164/2/3 159/2/3 158/2/3
f 164/5/3 158/5/3 163/5/3
f 165/5/3 160/5/3 159/5/3
f 165/2/3 159/2/3 164/2/3
f 166/5/3 160/5/3 165/5/3
f 167/5/3 156/5/3 160/5/3
f 167/5/3 160/5/3 166/5/3
f 168/4/3 162/4/3 161/4/3
f 169/4/3 162/4/3 168/4/3
f 170/4/3 162/4/3 169/4/3
f 171/4/3 162/4/3 170/4/3
f 172/5/3 163/5/3 162/5/3
f 172/2/3 164/2/3 163/2/3
f 173/2/3 164/2/3 172/2/3
f 174/5/3 166/5/3 165/5/3
f 174/2/3 164/2/3 173/2/3
f 174/5/3 165/5/3 164/5/3
f 175/4/3 167/4/3 166/4/3
f 175/5/3 166/5/3 174/5/3
f 176/4/3 167/4/3 175/4/3
f 177/5/3 156/5/3 167/5/3
f 177/4/3 167/4/3 176/4/3
f 178/4/3 168/4/3 161/4/3
f 178/5/3 169/5/3 168/5/3
f 179/4/3 170/4/3 169/4/3
f 179/5/3 169/5/3 178/5/3
f 180/4/3 173/4/3 172/4/3
f 180/5/3 172/5/3 162/5/3
f 181/3/3 176/3/3 175/3/3
f 181/4/3 173/4/3 180/4/3
f 181/3/3 174/3/3 173/3/3
f 181/3/3 175/3/3 174/3/3
f 182/3/3 176/3/3 181/3/3
f 183/5/3 177/5/3 176/5/3
f 183/3/3 176/3/3 182/3/3
f 184/5/3 177/5/3 183/5/3
f 185/5/3 177/5/3 184/5/3
f 186/5/3 156/5/3 177/5/3
f 186/5/3 177/5/3 185/5/3
f 187/5/3 161/5/3 150/5/3
f 187/4/3 179/4/3 178/4/3
f 187/4/3 178/4/3 161/4/3
f 188/4/3 170/4/3 179/4/3
f 188/4/3 179/4/3 187/4/3
f 188/5/3 171/5/3 170/5/3
f 189/4/3 162/4/3 171/4/3
f 189/5/3 171/5/3 188/5/3
f 190/5/3 180/5/3 162/5/3
f 190/4/3 162/4/3 189/4/3
f 190/5/3 182/5/3 181/5/3
f 190/5/3 181/5/3 180/5/3
f 191/4/3 183/4/3 182/4/3
f 191/4/3 184/4/3 183/4/3
f 192/5/3 185/5/3 184/5/3
f 192/4/3 184/4/3 191/4/3
f 193/4/3 186/4/3 185/4/3
f 193/5/3 185/5/3 192/5/3
f 194/5/3 188/5/3 187/5/3
f 194/5/3 182/5/3 190/5/3
f 194/5/3 189/5/3 188/5/3
f 194/4/3 191/4/3 182/4/3
f 194/5/3 190/5/3 189/5/3
f 195/5/3 192/5/3 191/5/3
f 195/4/3 191/4/3 194/4/3
f 196/4/3 193/4/3 192/4/3
f 196/5/3 192/5/3 195/5/3
f 197/4/3 186/4/3 193/4/3
f 197/4/3 193/4/3 196/4/3
f 197/5/3 156/5/3 186/5/3
f 198/1/3 150/1/3 149/1/3
f 199/5/3 196/5/3 195/5/3
f 199/1/3 150/1/3 198/1/3
f 199/5/3 187/5/3 150/5/3
f 199/5/3 197/5/3 196/5/3
f 199/5/3 194/5/3 187/5/3
f 199/5/3 195/5/3 194/5/3
f 200/5/3 197/5/3 199/5/3
f 201/5/3 156/5/3 197/5/3
f 201/5/3 197/5/3 200/5/3
f 202/1/3 157/1/3 156/1/3
f 202/5/3 156/5/3 201/5/3
f 203/1/3 157/1/3 202/1/3
f 204/1/3 200/1/3 199/1/3
f 205/5/3 201/5/3 200/5/3
f 205/1/3 200/1/3 204/1/3
f 206/5/3 201/5/3 205/5/3
f 207/5/3 201/5/3 206/5/3
f 208/5/3 201/5/3 207/5/3
f 209/5/3 201/5/3 208/5/3
f 210/5/3 201/5/3 209/5/3
f 211/5/3 201/5/3 210/5/3
f 212/1/3 202/1/3 201/1/3
f 212/5/3 201/5/3 211/5/3
f 213/1/3 202/1/3 212/1/3
f 214/1/3 206/1/3 205/1/3
f 215/5/3 207/5/3 206/5/3
f 215/1/3 206/1/3 214/1/3
f 216/5/3 207/5/3 215/5/3
f 217/5/3 209/5/3 208/5/3
f 218/5/3 209/5/3 217/5/3
f 219/5/3 211/5/3 210/5/3
f 220/1/3 212/1/3 211/1/3
f 220/5/3 211/5/3 219/5/3
f 221/1/3 212/1/3 220/1/3
f 222/1/3 216/1/3 215/1/3
f 223/5/3 207/5/3 216/5/3
f 223/1/3 216/1/3 222/1/3
f 224/5/3 207/5/3 223/5/3
f 225/4/3 208/4/3 207/4/3
f 225/5/3 217/5/3 208/5/3
f 226/4/3 218/4/3 217/4/3
f 226/5/3 217/5/3 225/5/3
f 227/5/3 209/5/3 218/5/3
f 227/4/3 218/4/3 226/4/3
f 228/4/3 210/4/3 209/4/3
f 228/5/3 209/5/3 227/5/3
f 229/5/3 219/5/3 210/5/3
f 230/1/3 220/1/3 219/1/3
f 230/5/3 219/5/3 229/5/3
f 231/1/3 220/1/3 230/1/3
f 232/1/3 224/1/3 223/1/3
f 233/5/3 207/5/3 224/5/3
f 233/1/3 224/1/3 232/1/3
f 234/5/3 207/5/3 233/5/3
f 235/4/3 226/4/3 225/4/3
f 235/5/3 207/5/3 234/5/3
f 235/4/3 227/4/3 226/4/3
f 235/4/3 225/4/3 207/4/3
f 235/4/3 228/4/3 227/4/3
f 236/4/3 210/4/3 228/4/3
f 236/4/3 228/4/3 235/4/3
f 236/5/3 229/5/3 210/5/3
f 237/5/3 229/5/3 236/5/3
f 238/1/3 230/1/3 229/1/3
f 238/5/3 229/5/3 237/5/3
f 239/1/3 230/1/3 238/1/3
f 240/1/3 234/1/3 233/1/3
f 241/5/3 235/5/3 234/5/3
f 241/1/3 234/1/3 240/1/3
f 241/5/3 237/5/3 236/5/3
f 241/5/3 236/5/3 235/5/3
f 242/1/3 238/1/3 237/1/3
f 242/5/3 237/5/3 241/5/3
f 243/1/3 238/1/3 242/1/3
f 244/1/3 242/1/3 241/1/3
f 245/1/3 242/1/3 244/1/3
f 246/1/4 247/1/4 249/1/4
f 249/1/4 247/1/4 250/1/4
f 248/1/4 249/1/4 253/1/4
f 249/5/4 250/5/4 254/5/4
f 253/1/4 249/1/4 254/1/4
f 254/5/4 250/5/4 255/5/4
f 255/5/4 250/5/4 256/5/4
f 256/5/4 250/5/4 257/5/4
f 257/5/4 250/5/4 258/5/4
f 250/1/4 251/1/4 259/1/4
f 258/5/4 250/5/4 259/5/4
f 259/1/4 251/1/4 260/1/4
f 252/1/4 253/1/4 263/1/4
f 253/5/4 254/5/4 264/5/4
f 254/5/4 255/5/4 264/5/4
f 263/1/4 253/1/4 264/1/4
f 257/4/4 258/4/4 265/4/4
f 265/4/4 258/4/4 266/4/4
f 260/1/4 261/1/4 267/1/4
f 258/5/4 259/5/4 267/5/4
f 259/5/4 260/5/4 267/5/4
f 267/1/4 261/1/4 268/1/4
f 262/1/4 263/1/4 271/1/4
f 263/5/4 264/5/4 272/5/4
f 271/1/4 263/1/4 272/1/4
f 255/4/4 256/4/4 273/4/4
f 256/5/4 257/5/4 273/5/4
f 257/4/4 265/4/4 274/4/4
f 273/5/4 257/5/4 274/5/4
f 265/5/4 266/5/4 275/5/4
f 274/4/4 265/4/4 275/4/4
f 266/4/4 258/4/4 276/4/4
f 275/5/4 266/5/4 276/5/4
f 268/1/4 269/1/4 277/1/4
f 267/5/4 268/5/4 277/5/4
f 277/1/4 269/1/4 278/1/4
f 270/1/4 271/1/4 281/1/4
f 271/5/4 272/5/4 282/5/4
f 281/1/4 271/1/4 282/1/4
f 264/5/4 255/5/4 283/5/4
f 282/5/4 272/5/4 283/5/4
f 274/4/4 275/4/4 283/4/4
f 272/5/4 264/5/4 283/5/4
f 273/4/4 274/4/4 283/4/4
f 255/4/4 273/4/4 283/4/4
f 275/4/4 276/4/4 283/4/4
f 276/4/4 258/4/4 284/4/4
f 283/4/4 276/4/4 284/4/4
f 277/5/4 278/5/4 284/5/4
f 258/5/4 267/5/4 284/5/4
f 267/5/4 277/5/4 284/5/4
f 278/1/4 279/1/4 285/1/4
f 284/5/4 278/5/4 285/5/4
f 285/1/4 279/1/4 286/1/4
f 281/5/4 282/5/4 288/5/4
f 282/5/4 283/5/4 288/5/4
f 285/5/4 286/5/4 288/5/4
f 284/5/4 285/5/4 288/5/4
f 283/5/4 284/5/4 288/5/4
f 288/5/4 286/5/4 289/5/4
f 280/1/4 281/1/4 291/1/4
f 281/5/4 288/5/4 292/5/4
f 291/1/4 281/1/4 292/1/4
f 292/5/4 288/5/4 293/5/4
f 288/2/4 289/2/4 294/2/4
f 293/5/4 288/5/4 294/5/4
f 289/5/4 286/5/4 295/5/4
f 294/2/4 289/2/4 295/2/4
f 286/1/4 287/1/4 296/1/4
f 295/5/4 286/5/4 296/5/4
f 296/1/4 287/1/4 297/1/4
f 292/5/4 293/5/4 299/5/4
f 291/5/4 292/5/4 299/5/4
f 293/2/4 294/2/4 300/2/4
f 299/5/4 293/5/4 300/5/4
f 294/5/4 295/5/4 301/5/4
f 300/2/4 294/2/4 301/2/4
f 296/5/4 297/5/4 301/5/4
f 295/5/4 296/5/4 301/5/4
f 291/5/4 299/5/4 302/5/4
f 302/5/4 299/5/4 303/5/4
f 303/5/4 299/5/4 304/5/4
f 299/2/4 300/2/4 305/2/4
f 304/5/4 299/5/4 305/5/4
f 300/5/4 301/5/4 306/5/4
f 305/2/4 300/2/4 306/2/4
f 306/5/4 301/5/4 307/5/4
f 301/5/4 297/5/4 308/5/4
f 307/5/4 301/5/4 308/5/4
f 302/4/4 303/4/4 309/4/4
f 309/4/4 303/4/4 310/4/4
f 310/4/4 303/4/4 311/4/4
f 311/4/4 303/4/4 312/4/4
f 303/5/4 304/5/4 313/5/4
f 304/2/4 305/2/4 313/2/4
f 313/2/4 305/2/4 314/2/4
f 306/5/4 307/5/4 315/5/4
f 314/2/4 305/2/4 315/2/4
f 305/5/4 306/5/4 315/5/4
f 307/4/4 308/4/4 316/4/4
f 315/5/4 307/5/4 316/5/4
f 316/4/4 308/4/4 317/4/4
f 308/5/4 297/5/4 318/5/4
f 317/4/4 308/4/4 318/4/4
f 302/4/4 309/4/4 319/4/4
f 309/5/4 310/5/4 319/5/4
f 310/4/4 311/4/4 320/4/4
f 319/5/4 310/5/4 320/5/4
f 313/4/4 314/4/4 321/4/4
f 303/5/4 313/5/4 321/5/4
f 316/3/4 317/3/4 322/3/4
f 321/4/4 314/4/4 322/4/4
f 314/3/4 315/3/4 322/3/4
f 315/3/4 316/3/4 322/3/4
f 322/3/4 317/3/4 323/3/4
f 317/5/4 318/5/4 324/5/4
f 323/3/4 317/3/4 324/3/4
f 324/5/4 318/5/4 325/5/4
f 325/5/4 318/5/4 326/5/4
f 318/5/4 297/5/4 327/5/4
f 326/5/4 318/5/4 327/5/4
f 291/5/4 302/5/4 328/5/4
f 319/4/4 320/4/4 328/4/4
f 302/4/4 319/4/4 328/4/4
f 320/4/4 311/4/4 329/4/4
f 328/4/4 320/4/4 329/4/4
f 311/5/4 312/5/4 329/5/4
f 312/4/4 303/4/4 330/4/4
f 329/5/4 312/5/4 330/5/4
f 303/5/4 321/5/4 331/5/4
f 330/4/4 303/4/4 331/4/4
f 322/5/4 323/5/4 331/5/4
f 321/5/4 322/5/4 331/5/4
f 323/4/4 324/4/4 332/4/4
f 324/4/4 325/4/4 332/4/4
f 325/5/4 326/5/4 333/5/4
f 332/4/4 325/4/4 333/4/4
f 326/4/4 327/4/4 334/4/4
f 333/5/4 326/5/4 334/5/4
f 328/5/4 329/5/4 335/5/4
f 331/5/4 323/5/4 335/5/4
f 329/5/4 330/5/4 335/5/4
f 323/4/4 332/4/4 335/4/4
f 330/5/4 331/5/4 335/5/4
f 332/5/4 333/5/4 336/5/4
f 335/4/4 332/4/4 336/4/4
f 333/4/4 334/4/4 337/4/4
f 336/5/4 333/5/4 337/5/4
f 334/4/4 327/4/4 338/4/4
f 337/4/4 334/4/4 338/4/4
f 327/5/4 297/5/4 338/5/4
f 290/1/4 291/1/4 339/1/4
f 336/5/4 337/5/4 340/5/4
f 339/1/4 291/1/4 340/1/4
f 291/5/4 328/5/4 340/5/4
f 337/5/4 338/5/4 340/5/4
f 328/5/4 335/5/4 340/5/4
f 335/5/4 336/5/4 340/5/4
f 340/5/4 338/5/4 341/5/4
f 338/5/4 297/5/4 342/5/4
f 341/5/4 338/5/4 342/5/4
f 297/1/4 298/1/4 343/1/4
f 342/5/4 297/5/4 343/5/4
f 343/1/4 298/1/4 344/1/4
f 340/1/4 341/1/4 345/1/4
f 341/5/4 342/5/4 346/5/4
f 345/1/4 341/1/4 346/1/4
f 346/5/4 342/5/4 347/5/4
f 347/5/4 342/5/4 348/5/4
f 348/5/4 342/5/4 349/5/4
f 349/5/4 342/5/4 350/5/4
f 350/5/4 342/5/4 351/5/4
f 351/5/4 342/5/4 352/5/4
f 342/1/4 343/1/4 353/1/4
f 352/5/4 342/5/4 353/5/4
f 353/1/4 343/1/4 354/1/4
f 346/1/4 347/1/4 355/1/4
f 347/5/4 348/5/4 356/5/4
f 355/1/4 347/1/4 356/1/4
f 356/5/4 348/5/4 357/5/4
f 349/5/4 350/5/4 358/5/4
f 358/5/4 350/5/4 359/5/4
f 351/5/4 352/5/4 360/5/4
f 352/1/4 353/1/4 361/1/4
f 360/5/4 352/5/4 361/5/4
f 361/1/4 353/1/4 362/1/4
f 356/1/4 357/1/4 363/1/4
f 357/5/4 348/5/4 364/5/4
f 363/1/4 357/1/4 364/1/4
f 364/5/4 348/5/4 365/5/4
f 348/4/4 349/4/4 366/4/4
f 349/5/4 358/5/4 366/5/4
f 358/4/4 359/4/4 367/4/4
f 366/5/4 358/5/4 367/5/4
f 359/5/4 350/5/4 368/5/4
f 367/4/4 359/4/4 368/4/4
f 350/4/4 351/4/4 369/4/4
f 368/5/4 350/5/4 369/5/4
f 351/5/4 360/5/4 370/5/4
f 360/1/4 361/1/4 371/1/4
f 370/5/4 360/5/4 371/5/4
f 371/1/4 361/1/4 372/1/4
f 364/1/4 365/1/4 373/1/4
f 365/5/4 348/5/4 374/5/4
f 373/1/4 365/1/4 374/1/4
f 374/5/4 348/5/4 375/5/4
f 366/4/4 367/4/4 376/4/4
f 375/5/4 348/5/4 376/5/4
f 367/4/4 368/4/4 376/4/4
f 348/4/4 366/4/4 376/4/4
f 368/4/4 369/4/4 376/4/4
f 369/4/4 351/4/4 377/4/4
f 376/4/4 369/4/4 377/4/4
f 351/5/4 370/5/4 377/5/4
f 377/5/4 370/5/4 378/5/4
f 370/1/4 371/1/4 379/1/4
f 378/5/4 370/5/4 379/5/4
f 379/1/4 371/1/4 380/1/4
f 374/1/4 375/1/4 381/1/4
f 375/5/4 376/5/4 382/5/4
f 381/1/4 375/1/4 382/1/4
f 377/5/4 378/5/4 382/5/4
f 376/5/4 377/5/4 382/5/4
f 378/1/4 379/1/4 383/1/4
f 382/5/4 378/5/4 383/5/4
f 383/1/4 379/1/4 384/1/4
f 382/1/4 383/1/4 385/1/4
f 385/1/4 383/1/4 386/1/4
f 389/1/5 388/1/5 387/1/5
f 390/1/5 388/1/5 389/1/5
f 395/1/5 392/1/5 391/1/5
f 396/1/5 392/1/5 395/1/5
f 397/1/5 394/1/5 393/1/5
f 398/1/5 394/1/5 397/1/5
f 403/1/5 400/1/5 399/1/5
f 404/1/5 400/1/5 403/1/5
f 405/1/5 402/1/5 401/1/5
f 406/1/5 402/1/5 405/1/5
f 411/1/5 408/1/5 407/1/5
f 412/1/5 408/1/5 411/1/5
f 413/1/5 410/1/5 409/1/5
f 414/1/5 410/1/5 413/1/5
f 419/1/5 416/1/5 415/1/5
f 420/1/5 416/1/5 419/1/5
f 421/1/5 418/1/5 417/1/5
f 422/1/5 418/1/5 421/1/5
f 427/1/5 424/1/5 423/1/5
f 428/1/5 424/1/5 427/1/5
f 429/1/5 426/1/5 425/1/5
f 430/1/5 426/1/5 429/1/5
f 435/1/5 432/1/5 431/1/5
f 436/1/5 432/1/5 435/1/5
f 437/1/5 434/1/5 433/1/5
f 438/1/5 434/1/5 437/1/5
f 439/1/6 440/1/6 443/1/6
f 443/1/6 440/1/6 444/1/6
f 441/1/6 442/1/6 445/1/6
f 445/1/6 442/1/6 446/1/6
f 447/1/6 448/1/6 451/1/6
f 451/1/6 448/1/6 452/1/6
f 449/1/6 450/1/6 453/1/6
f 453/1/6 450/1/6 454/1/6
f 455/1/6 456/1/6 459/1/6
f 459/1/6 456/1/6 460/1/6
f 457/1/6 458/1/6 461/1/6
f 461/1/6 458/1/6 462/1/6
f 463/1/6 464/1/6 467/1/6
f 467/1/6 464/1/6 468/1/6
f 465/1/6 466/1/6 469/1/6
f 469/1/6 466/1/6 470/1/6
f 471/1/6 472/1/6 475/1/6
f 475/1/6 472/1/6 476/1/6
f 473/1/6 474/1/6 477/1/6
f 477/1/6 474/1/6 478/1/6
f 479/1/6 480/1/6 483/1/6
f 483/1/6 480/1/6 484/1/6
f 481/1/6 482/1/6 485/1/6
f 485/1/6 482/1/6 486/1/6
f 487/1/6 488/1/6 489/1/6
f 489/1/6 488/1/6 490/1/6
