# MagicaVoxel @ Ephtracy

# group
g picture_2

# material
mtllib picture_2.mtl
usemtl palette

# normals
vn -1 0 0
vn 1 0 0
vn 0 0 1
vn 0 0 -1
vn 0 -1 0
vn 0 1 0

# texcoords
vt 0.0175781 0.5
vt 0.0253906 0.5
vt 0.0332031 0.5
vt 0.0410156 0.5
vt 0.0605469 0.5
vt 0.0683594 0.5
vt 0.154297 0.5
vt 0.189453 0.5
vt 0.337891 0.5
vt 0.353516 0.5
vt 0.373047 0.5
vt 0.986328 0.5
vt 0.994141 0.5

# verts
v -15 0 0.5
v -15 0 -0.5
v -15 24 0.5
v -15 24 -0.5
v -5 17 0.5
v -5 17 -0.5
v -5 18 0.5
v -5 18 -0.5
v -4 18 0.5
v -4 18 -0.5
v -4 19 0.5
v -4 19 -0.5
v -3 17 0.5
v -3 17 -0.5
v -3 18 0.5
v -3 18 -0.5
v 4 17 0.5
v 4 17 -0.5
v 4 18 0.5
v 4 18 -0.5
v 5 18 0.5
v 5 18 -0.5
v 5 19 0.5
v 5 19 -0.5
v 6 17 0.5
v 6 17 -0.5
v 6 18 0.5
v 6 18 -0.5
v -6 17 0.5
v -6 17 -0.5
v -6 18 0.5
v -6 18 -0.5
v -5 18 0.5
v -5 18 -0.5
v -5 19 0.5
v -5 19 -0.5
v -4 17 0.5
v -4 17 -0.5
v -4 18 0.5
v -4 18 -0.5
v 3 17 0.5
v 3 17 -0.5
v 3 18 0.5
v 3 18 -0.5
v 4 18 0.5
v 4 18 -0.5
v 4 19 0.5
v 4 19 -0.5
v 5 17 0.5
v 5 17 -0.5
v 5 18 0.5
v 5 18 -0.5
v 15 0 0.5
v 15 0 -0.5
v 15 24 0.5
v 15 24 -0.5
v -15 0 0.5
v -15 24 0.5
v -14 1 0.5
v -14 23 0.5
v -13 2 0.5
v -13 22 0.5
v -12 3 0.5
v -12 21 0.5
v -7 6 0.5
v -7 7 0.5
v -7 8 0.5
v -7 16 0.5
v -7 17 0.5
v -7 18 0.5
v -6 5 0.5
v -6 6 0.5
v -6 7 0.5
v -6 8 0.5
v -6 13 0.5
v -6 16 0.5
v -6 17 0.5
v -6 18 0.5
v -6 19 0.5
v -5 5 0.5
v -5 6 0.5
v -5 7 0.5
v -5 8 0.5
v -5 13 0.5
v -5 17 0.5
v -5 18 0.5
v -5 19 0.5
v -5 20 0.5
v -4 7 0.5
v -4 8 0.5
v -4 9 0.5
v -4 10 0.5
v -4 11 0.5
v -4 12 0.5
v -4 15 0.5
v -4 16 0.5
v -4 17 0.5
v -4 18 0.5
v -4 19 0.5
v -4 20 0.5
v -3 7 0.5
v -3 8 0.5
v -3 9 0.5
v -3 10 0.5
v -3 11 0.5
v -3 12 0.5
v -3 15 0.5
v -3 16 0.5
v -3 17 0.5
v -3 18 0.5
v -3 19 0.5
v -2 4 0.5
v -2 5 0.5
v -2 7 0.5
v -2 8 0.5
v -2 9 0.5
v -2 10 0.5
v -2 11 0.5
v -2 12 0.5
v -2 13 0.5
v -2 16 0.5
v -2 17 0.5
v -2 18 0.5
v -1 4 0.5
v -1 5 0.5
v -1 7 0.5
v -1 10 0.5
v -1 11 0.5
v -1 12 0.5
v -1 13 0.5
v -1 17 0.5
v -1 18 0.5
v 0 11 0.5
v 0 12 0.5
v 1 4 0.5
v 1 5 0.5
v 1 7 0.5
v 1 10 0.5
v 1 11 0.5
v 1 12 0.5
v 1 13 0.5
v 1 17 0.5
v 1 18 0.5
v 2 4 0.5
v 2 5 0.5
v 2 7 0.5
v 2 8 0.5
v 2 9 0.5
v 2 10 0.5
v 2 11 0.5
v 2 12 0.5
v 2 13 0.5
v 2 16 0.5
v 2 17 0.5
v 2 18 0.5
v 3 7 0.5
v 3 8 0.5
v 3 9 0.5
v 3 10 0.5
v 3 11 0.5
v 3 12 0.5
v 3 15 0.5
v 3 16 0.5
v 3 17 0.5
v 3 18 0.5
v 3 19 0.5
v 4 7 0.5
v 4 8 0.5
v 4 9 0.5
v 4 10 0.5
v 4 11 0.5
v 4 12 0.5
v 4 15 0.5
v 4 16 0.5
v 4 17 0.5
v 4 18 0.5
v 4 19 0.5
v 4 20 0.5
v 5 5 0.5
v 5 6 0.5
v 5 7 0.5
v 5 8 0.5
v 5 13 0.5
v 5 17 0.5
v 5 18 0.5
v 5 19 0.5
v 5 20 0.5
v 6 5 0.5
v 6 6 0.5
v 6 7 0.5
v 6 8 0.5
v 6 13 0.5
v 6 16 0.5
v 6 17 0.5
v 6 18 0.5
v 6 19 0.5
v 7 6 0.5
v 7 7 0.5
v 7 8 0.5
v 7 16 0.5
v 7 17 0.5
v 7 18 0.5
v 12 3 0.5
v 12 21 0.5
v 13 2 0.5
v 13 22 0.5
v 14 1 0.5
v 14 23 0.5
v 15 0 0.5
v 15 24 0.5
v -15 0 -0.5
v -15 24 -0.5
v -14 1 -0.5
v -14 23 -0.5
v -13 2 -0.5
v -13 22 -0.5
v -12 3 -0.5
v -12 21 -0.5
v -7 6 -0.5
v -7 7 -0.5
v -7 8 -0.5
v -7 16 -0.5
v -7 17 -0.5
v -7 18 -0.5
v -6 5 -0.5
v -6 6 -0.5
v -6 7 -0.5
v -6 8 -0.5
v -6 13 -0.5
v -6 16 -0.5
v -6 17 -0.5
v -6 18 -0.5
v -6 19 -0.5
v -5 5 -0.5
v -5 6 -0.5
v -5 7 -0.5
v -5 8 -0.5
v -5 13 -0.5
v -5 17 -0.5
v -5 18 -0.5
v -5 19 -0.5
v -5 20 -0.5
v -4 7 -0.5
v -4 8 -0.5
v -4 9 -0.5
v -4 10 -0.5
v -4 11 -0.5
v -4 12 -0.5
v -4 15 -0.5
v -4 16 -0.5
v -4 17 -0.5
v -4 18 -0.5
v -4 19 -0.5
v -4 20 -0.5
v -3 7 -0.5
v -3 8 -0.5
v -3 9 -0.5
v -3 10 -0.5
v -3 11 -0.5
v -3 12 -0.5
v -3 15 -0.5
v -3 16 -0.5
v -3 17 -0.5
v -3 18 -0.5
v -3 19 -0.5
v -2 4 -0.5
v -2 5 -0.5
v -2 7 -0.5
v -2 8 -0.5
v -2 9 -0.5
v -2 10 -0.5
v -2 11 -0.5
v -2 12 -0.5
v -2 13 -0.5
v -2 16 -0.5
v -2 17 -0.5
v -2 18 -0.5
v -1 4 -0.5
v -1 5 -0.5
v -1 7 -0.5
v -1 10 -0.5
v -1 11 -0.5
v -1 12 -0.5
v -1 13 -0.5
v -1 17 -0.5
v -1 18 -0.5
v 0 11 -0.5
v 0 12 -0.5
v 1 4 -0.5
v 1 5 -0.5
v 1 7 -0.5
v 1 10 -0.5
v 1 11 -0.5
v 1 12 -0.5
v 1 13 -0.5
v 1 17 -0.5
v 1 18 -0.5
v 2 4 -0.5
v 2 5 -0.5
v 2 7 -0.5
v 2 8 -0.5
v 2 9 -0.5
v 2 10 -0.5
v 2 11 -0.5
v 2 12 -0.5
v 2 13 -0.5
v 2 16 -0.5
v 2 17 -0.5
v 2 18 -0.5
v 3 7 -0.5
v 3 8 -0.5
v 3 9 -0.5
v 3 10 -0.5
v 3 11 -0.5
v 3 12 -0.5
v 3 15 -0.5
v 3 16 -0.5
v 3 17 -0.5
v 3 18 -0.5
v 3 19 -0.5
v 4 7 -0.5
v 4 8 -0.5
v 4 9 -0.5
v 4 10 -0.5
v 4 11 -0.5
v 4 12 -0.5
v 4 15 -0.5
v 4 16 -0.5
v 4 17 -0.5
v 4 18 -0.5
v 4 19 -0.5
v 4 20 -0.5
v 5 5 -0.5
v 5 6 -0.5
v 5 7 -0.5
v 5 8 -0.5
v 5 13 -0.5
v 5 17 -0.5
v 5 18 -0.5
v 5 19 -0.5
v 5 20 -0.5
v 6 5 -0.5
v 6 6 -0.5
v 6 7 -0.5
v 6 8 -0.5
v 6 13 -0.5
v 6 16 -0.5
v 6 17 -0.5
v 6 18 -0.5
v 6 19 -0.5
v 7 6 -0.5
v 7 7 -0.5
v 7 8 -0.5
v 7 16 -0.5
v 7 17 -0.5
v 7 18 -0.5
v 12 3 -0.5
v 12 21 -0.5
v 13 2 -0.5
v 13 22 -0.5
v 14 1 -0.5
v 14 23 -0.5
v 15 0 -0.5
v 15 24 -0.5
v -15 0 0.5
v 15 0 0.5
v -15 0 -0.5
v 15 0 -0.5
v -6 18 0.5
v -5 18 0.5
v -4 18 0.5
v -3 18 0.5
v 3 18 0.5
v 4 18 0.5
v 5 18 0.5
v 6 18 0.5
v -6 18 -0.5
v -5 18 -0.5
v -4 18 -0.5
v -3 18 -0.5
v 3 18 -0.5
v 4 18 -0.5
v 5 18 -0.5
v 6 18 -0.5
v -5 19 0.5
v -4 19 0.5
v 4 19 0.5
v 5 19 0.5
v -5 19 -0.5
v -4 19 -0.5
v 4 19 -0.5
v 5 19 -0.5
v -6 17 0.5
v -5 17 0.5
v -4 17 0.5
v -3 17 0.5
v 3 17 0.5
v 4 17 0.5
v 5 17 0.5
v 6 17 0.5
v -6 17 -0.5
v -5 17 -0.5
v -4 17 -0.5
v -3 17 -0.5
v 3 17 -0.5
v 4 17 -0.5
v 5 17 -0.5
v 6 17 -0.5
v -5 18 0.5
v -4 18 0.5
v 4 18 0.5
v 5 18 0.5
v -5 18 -0.5
v -4 18 -0.5
v 4 18 -0.5
v 5 18 -0.5
v -15 24 0.5
v 15 24 0.5
v -15 24 -0.5
v 15 24 -0.5

# faces
f 3/11/1 2/11/1 1/11/1
f 4/11/1 2/11/1 3/11/1
f 7/2/1 6/2/1 5/2/1
f 8/2/1 6/2/1 7/2/1
f 11/2/1 10/2/1 9/2/1
f 12/2/1 10/2/1 11/2/1
f 15/4/1 14/4/1 13/4/1
f 16/4/1 14/4/1 15/4/1
f 19/2/1 18/2/1 17/2/1
f 20/2/1 18/2/1 19/2/1
f 23/8/1 22/8/1 21/8/1
f 24/8/1 22/8/1 23/8/1
f 27/8/1 26/8/1 25/8/1
f 28/8/1 26/8/1 27/8/1
f 29/8/2 30/8/2 31/8/2
f 31/8/2 30/8/2 32/8/2
f 33/8/2 34/8/2 35/8/2
f 35/8/2 34/8/2 36/8/2
f 37/2/2 38/2/2 39/2/2
f 39/2/2 38/2/2 40/2/2
f 41/4/2 42/4/2 43/4/2
f 43/4/2 42/4/2 44/4/2
f 45/2/2 46/2/2 47/2/2
f 47/2/2 46/2/2 48/2/2
f 49/2/2 50/2/2 51/2/2
f 51/2/2 50/2/2 52/2/2
f 53/11/2 54/11/2 55/11/2
f 55/11/2 54/11/2 56/11/2
f 59/11/3 58/11/3 57/11/3
f 60/11/3 58/11/3 59/11/3
f 61/9/3 60/9/3 59/9/3
f 62/9/3 60/9/3 61/9/3
f 63/11/3 62/11/3 61/11/3
f 64/11/3 62/11/3 63/11/3
f 65/12/3 64/12/3 63/12/3
f 66/12/3 64/12/3 65/12/3
f 67/12/3 64/12/3 66/12/3
f 68/12/3 64/12/3 67/12/3
f 69/12/3 64/12/3 68/12/3
f 70/12/3 64/12/3 69/12/3
f 71/12/3 65/12/3 63/12/3
f 72/7/3 66/7/3 65/7/3
f 72/12/3 65/12/3 71/12/3
f 73/10/3 67/10/3 66/10/3
f 73/7/3 66/7/3 72/7/3
f 74/8/3 68/8/3 67/8/3
f 74/10/3 67/10/3 73/10/3
f 75/8/3 68/8/3 74/8/3
f 76/10/3 69/10/3 68/10/3
f 76/8/3 68/8/3 75/8/3
f 77/8/3 70/8/3 69/8/3
f 77/10/3 69/10/3 76/10/3
f 78/12/3 64/12/3 70/12/3
f 78/8/3 70/8/3 77/8/3
f 79/12/3 64/12/3 78/12/3
f 80/12/3 71/12/3 63/12/3
f 80/10/3 72/10/3 71/10/3
f 81/12/3 73/12/3 72/12/3
f 81/10/3 72/10/3 80/10/3
f 81/12/3 75/12/3 74/12/3
f 81/12/3 74/12/3 73/12/3
f 82/12/3 75/12/3 81/12/3
f 83/12/3 75/12/3 82/12/3
f 84/2/3 77/2/3 76/2/3
f 84/12/3 75/12/3 83/12/3
f 84/2/3 76/2/3 75/2/3
f 85/2/3 77/2/3 84/2/3
f 86/8/3 79/8/3 78/8/3
f 87/12/3 64/12/3 79/12/3
f 87/8/3 79/8/3 86/8/3
f 88/12/3 64/12/3 87/12/3
f 89/5/3 83/5/3 82/5/3
f 89/12/3 82/12/3 81/12/3
f 89/12/3 81/12/3 80/12/3
f 90/12/3 85/12/3 84/12/3
f 90/5/3 83/5/3 89/5/3
f 90/12/3 84/12/3 83/12/3
f 91/12/3 85/12/3 90/12/3
f 92/12/3 85/12/3 91/12/3
f 93/12/3 85/12/3 92/12/3
f 94/12/3 85/12/3 93/12/3
f 95/12/3 85/12/3 94/12/3
f 96/12/3 85/12/3 95/12/3
f 97/2/3 86/2/3 85/2/3
f 97/12/3 85/12/3 96/12/3
f 98/2/3 86/2/3 97/2/3
f 99/8/3 88/8/3 87/8/3
f 100/12/3 64/12/3 88/12/3
f 100/8/3 88/8/3 99/8/3
f 101/12/3 89/12/3 80/12/3
f 101/12/3 90/12/3 89/12/3
f 102/5/3 91/5/3 90/5/3
f 102/12/3 90/12/3 101/12/3
f 103/12/3 92/12/3 91/12/3
f 103/5/3 91/5/3 102/5/3
f 104/8/3 93/8/3 92/8/3
f 104/12/3 92/12/3 103/12/3
f 105/7/3 94/7/3 93/7/3
f 105/8/3 93/8/3 104/8/3
f 106/2/3 95/2/3 94/2/3
f 106/7/3 94/7/3 105/7/3
f 107/6/3 96/6/3 95/6/3
f 107/2/3 95/2/3 106/2/3
f 108/4/3 97/4/3 96/4/3
f 108/6/3 96/6/3 107/6/3
f 109/4/3 97/4/3 108/4/3
f 110/2/3 99/2/3 98/2/3
f 111/12/3 100/12/3 99/12/3
f 111/2/3 99/2/3 110/2/3
f 112/12/3 80/12/3 63/12/3
f 112/12/3 101/12/3 80/12/3
f 113/12/3 101/12/3 112/12/3
f 114/1/3 102/1/3 101/1/3
f 114/12/3 101/12/3 113/12/3
f 115/12/3 103/12/3 102/12/3
f 115/1/3 102/1/3 114/1/3
f 116/5/3 104/5/3 103/5/3
f 116/12/3 103/12/3 115/12/3
f 117/12/3 105/12/3 104/12/3
f 117/5/3 104/5/3 116/5/3
f 118/2/3 106/2/3 105/2/3
f 118/12/3 105/12/3 117/12/3
f 118/2/3 107/2/3 106/2/3
f 118/2/3 108/2/3 107/2/3
f 119/2/3 108/2/3 118/2/3
f 120/2/3 108/2/3 119/2/3
f 121/6/3 109/6/3 108/6/3
f 121/2/3 108/2/3 120/2/3
f 122/4/3 110/4/3 109/4/3
f 122/6/3 109/6/3 121/6/3
f 123/12/3 111/12/3 110/12/3
f 123/4/3 110/4/3 122/4/3
f 124/13/3 113/13/3 112/13/3
f 124/12/3 112/12/3 63/12/3
f 125/5/3 114/5/3 113/5/3
f 125/13/3 113/13/3 124/13/3
f 126/1/3 115/1/3 114/1/3
f 126/5/3 114/5/3 125/5/3
f 126/1/3 116/1/3 115/1/3
f 127/13/3 117/13/3 116/13/3
f 127/2/3 118/2/3 117/2/3
f 128/5/3 119/5/3 118/5/3
f 128/2/3 118/2/3 127/2/3
f 129/13/3 120/13/3 119/13/3
f 129/5/3 119/5/3 128/5/3
f 130/2/3 121/2/3 120/2/3
f 130/13/3 120/13/3 129/13/3
f 130/2/3 122/2/3 121/2/3
f 131/6/3 123/6/3 122/6/3
f 131/2/3 122/2/3 130/2/3
f 132/12/3 111/12/3 123/12/3
f 132/6/3 123/6/3 131/6/3
f 133/13/3 128/13/3 127/13/3
f 133/5/3 129/5/3 128/5/3
f 134/3/3 130/3/3 129/3/3
f 134/5/3 129/5/3 133/5/3
f 135/12/3 126/12/3 125/12/3
f 135/12/3 124/12/3 63/12/3
f 135/12/3 125/12/3 124/12/3
f 136/12/3 126/12/3 135/12/3
f 137/1/3 116/1/3 126/1/3
f 137/12/3 126/12/3 136/12/3
f 138/13/3 127/13/3 116/13/3
f 138/13/3 133/13/3 127/13/3
f 139/3/3 134/3/3 133/3/3
f 139/13/3 133/13/3 138/13/3
f 140/3/3 130/3/3 134/3/3
f 140/3/3 134/3/3 139/3/3
f 141/2/3 131/2/3 130/2/3
f 141/3/3 130/3/3 140/3/3
f 142/12/3 132/12/3 131/12/3
f 142/2/3 131/2/3 141/2/3
f 143/12/3 111/12/3 132/12/3
f 143/12/3 132/12/3 142/12/3
f 144/13/3 136/13/3 135/13/3
f 144/12/3 135/12/3 63/12/3
f 145/5/3 137/5/3 136/5/3
f 145/13/3 136/13/3 144/13/3
f 146/1/3 116/1/3 137/1/3
f 146/5/3 137/5/3 145/5/3
f 147/1/3 116/1/3 146/1/3
f 148/13/3 138/13/3 116/13/3
f 148/1/3 116/1/3 147/1/3
f 149/2/3 139/2/3 138/2/3
f 149/13/3 138/13/3 148/13/3
f 150/3/3 140/3/3 139/3/3
f 150/2/3 139/2/3 149/2/3
f 151/13/3 141/13/3 140/13/3
f 151/3/3 140/3/3 150/3/3
f 152/2/3 142/2/3 141/2/3
f 152/13/3 141/13/3 151/13/3
f 153/2/3 142/2/3 152/2/3
f 154/6/3 143/6/3 142/6/3
f 154/2/3 142/2/3 153/2/3
f 155/12/3 111/12/3 143/12/3
f 155/6/3 143/6/3 154/6/3
f 156/1/3 147/1/3 146/1/3
f 156/12/3 145/12/3 144/12/3
f 156/12/3 146/12/3 145/12/3
f 157/12/3 148/12/3 147/12/3
f 157/1/3 147/1/3 156/1/3
f 158/5/3 149/5/3 148/5/3
f 158/12/3 148/12/3 157/12/3
f 159/12/3 150/12/3 149/12/3
f 159/5/3 149/5/3 158/5/3
f 160/2/3 151/2/3 150/2/3
f 160/12/3 150/12/3 159/12/3
f 160/2/3 153/2/3 152/2/3
f 160/2/3 152/2/3 151/2/3
f 161/2/3 153/2/3 160/2/3
f 162/2/3 153/2/3 161/2/3
f 163/6/3 154/6/3 153/6/3
f 163/2/3 153/2/3 162/2/3
f 164/4/3 155/4/3 154/4/3
f 164/6/3 154/6/3 163/6/3
f 165/12/3 111/12/3 155/12/3
f 165/4/3 155/4/3 164/4/3
f 166/12/3 100/12/3 111/12/3
f 166/12/3 111/12/3 165/12/3
f 167/12/3 156/12/3 144/12/3
f 167/12/3 157/12/3 156/12/3
f 168/5/3 158/5/3 157/5/3
f 168/12/3 157/12/3 167/12/3
f 169/12/3 159/12/3 158/12/3
f 169/5/3 158/5/3 168/5/3
f 170/8/3 160/8/3 159/8/3
f 170/12/3 159/12/3 169/12/3
f 171/7/3 161/7/3 160/7/3
f 171/8/3 160/8/3 170/8/3
f 172/2/3 162/2/3 161/2/3
f 172/7/3 161/7/3 171/7/3
f 173/6/3 163/6/3 162/6/3
f 173/2/3 162/2/3 172/2/3
f 174/4/3 164/4/3 163/4/3
f 174/6/3 163/6/3 173/6/3
f 175/4/3 164/4/3 174/4/3
f 176/2/3 166/2/3 165/2/3
f 177/12/3 100/12/3 166/12/3
f 177/2/3 166/2/3 176/2/3
f 178/12/3 64/12/3 100/12/3
f 178/12/3 100/12/3 177/12/3
f 179/12/3 167/12/3 144/12/3
f 180/12/3 167/12/3 179/12/3
f 181/5/3 168/5/3 167/5/3
f 181/12/3 167/12/3 180/12/3
f 182/12/3 171/12/3 170/12/3
f 182/5/3 168/5/3 181/5/3
f 182/12/3 175/12/3 174/12/3
f 182/12/3 170/12/3 169/12/3
f 182/12/3 173/12/3 172/12/3
f 182/12/3 174/12/3 173/12/3
f 182/12/3 169/12/3 168/12/3
f 182/12/3 172/12/3 171/12/3
f 183/12/3 175/12/3 182/12/3
f 184/2/3 176/2/3 175/2/3
f 184/12/3 175/12/3 183/12/3
f 185/2/3 176/2/3 184/2/3
f 186/8/3 178/8/3 177/8/3
f 187/12/3 64/12/3 178/12/3
f 187/8/3 178/8/3 186/8/3
f 188/10/3 180/10/3 179/10/3
f 188/12/3 179/12/3 144/12/3
f 189/12/3 181/12/3 180/12/3
f 189/10/3 180/10/3 188/10/3
f 189/12/3 183/12/3 182/12/3
f 189/12/3 182/12/3 181/12/3
f 190/12/3 183/12/3 189/12/3
f 191/12/3 183/12/3 190/12/3
f 192/2/3 184/2/3 183/2/3
f 192/12/3 183/12/3 191/12/3
f 193/2/3 184/2/3 192/2/3
f 194/2/3 184/2/3 193/2/3
f 195/8/3 186/8/3 185/8/3
f 196/12/3 187/12/3 186/12/3
f 196/8/3 186/8/3 195/8/3
f 197/12/3 189/12/3 188/12/3
f 197/7/3 190/7/3 189/7/3
f 198/10/3 191/10/3 190/10/3
f 198/7/3 190/7/3 197/7/3
f 199/8/3 192/8/3 191/8/3
f 199/10/3 191/10/3 198/10/3
f 199/8/3 193/8/3 192/8/3
f 200/10/3 194/10/3 193/10/3
f 200/8/3 193/8/3 199/8/3
f 201/8/3 195/8/3 194/8/3
f 201/10/3 194/10/3 200/10/3
f 202/12/3 196/12/3 195/12/3
f 202/8/3 195/8/3 201/8/3
f 203/11/3 63/11/3 61/11/3
f 203/12/3 188/12/3 144/12/3
f 203/12/3 202/12/3 201/12/3
f 203/12/3 199/12/3 198/12/3
f 203/12/3 198/12/3 197/12/3
f 203/12/3 201/12/3 200/12/3
f 203/12/3 197/12/3 188/12/3
f 203/12/3 200/12/3 199/12/3
f 203/12/3 144/12/3 63/12/3
f 204/12/3 196/12/3 202/12/3
f 204/12/3 202/12/3 203/12/3
f 204/11/3 62/11/3 64/11/3
f 204/12/3 64/12/3 187/12/3
f 204/12/3 187/12/3 196/12/3
f 205/9/3 61/9/3 59/9/3
f 205/11/3 203/11/3 61/11/3
f 205/11/3 204/11/3 203/11/3
f 206/11/3 62/11/3 204/11/3
f 206/11/3 204/11/3 205/11/3
f 206/9/3 60/9/3 62/9/3
f 207/11/3 59/11/3 57/11/3
f 207/9/3 205/9/3 59/9/3
f 207/9/3 206/9/3 205/9/3
f 208/9/3 60/9/3 206/9/3
f 208/9/3 206/9/3 207/9/3
f 208/11/3 58/11/3 60/11/3
f 209/11/3 207/11/3 57/11/3
f 209/11/3 208/11/3 207/11/3
f 210/11/3 58/11/3 208/11/3
f 210/11/3 208/11/3 209/11/3
f 211/11/4 212/11/4 213/11/4
f 213/11/4 212/11/4 214/11/4
f 213/9/4 214/9/4 215/9/4
f 215/9/4 214/9/4 216/9/4
f 215/11/4 216/11/4 217/11/4
f 217/11/4 216/11/4 218/11/4
f 217/12/4 218/12/4 219/12/4
f 219/12/4 218/12/4 220/12/4
f 220/12/4 218/12/4 221/12/4
f 221/12/4 218/12/4 222/12/4
f 222/12/4 218/12/4 223/12/4
f 223/12/4 218/12/4 224/12/4
f 217/12/4 219/12/4 225/12/4
f 219/7/4 220/7/4 226/7/4
f 225/12/4 219/12/4 226/12/4
f 220/10/4 221/10/4 227/10/4
f 226/7/4 220/7/4 227/7/4
f 221/8/4 222/8/4 228/8/4
f 227/10/4 221/10/4 228/10/4
f 228/8/4 222/8/4 229/8/4
f 222/10/4 223/10/4 230/10/4
f 229/8/4 222/8/4 230/8/4
f 223/8/4 224/8/4 231/8/4
f 230/10/4 223/10/4 231/10/4
f 224/12/4 218/12/4 232/12/4
f 231/8/4 224/8/4 232/8/4
f 232/12/4 218/12/4 233/12/4
f 217/12/4 225/12/4 234/12/4
f 225/10/4 226/10/4 234/10/4
f 226/12/4 227/12/4 235/12/4
f 234/10/4 226/10/4 235/10/4
f 228/12/4 229/12/4 235/12/4
f 227/12/4 228/12/4 235/12/4
f 235/12/4 229/12/4 236/12/4
f 236/12/4 229/12/4 237/12/4
f 230/2/4 231/2/4 238/2/4
f 237/12/4 229/12/4 238/12/4
f 229/2/4 230/2/4 238/2/4
f 238/2/4 231/2/4 239/2/4
f 232/8/4 233/8/4 240/8/4
f 233/12/4 218/12/4 241/12/4
f 240/8/4 233/8/4 241/8/4
f 241/12/4 218/12/4 242/12/4
f 236/5/4 237/5/4 243/5/4
f 235/12/4 236/12/4 243/12/4
f 234/12/4 235/12/4 243/12/4
f 238/12/4 239/12/4 244/12/4
f 243/5/4 237/5/4 244/5/4
f 237/12/4 238/12/4 244/12/4
f 244/12/4 239/12/4 245/12/4
f 245/12/4 239/12/4 246/12/4
f 246/12/4 239/12/4 247/12/4
f 247/12/4 239/12/4 248/12/4
f 248/12/4 239/12/4 249/12/4
f 249/12/4 239/12/4 250/12/4
f 239/2/4 240/2/4 251/2/4
f 250/12/4 239/12/4 251/12/4
f 251/2/4 240/2/4 252/2/4
f 241/8/4 242/8/4 253/8/4
f 242/12/4 218/12/4 254/12/4
f 253/8/4 242/8/4 254/8/4
f 234/12/4 243/12/4 255/12/4
f 243/12/4 244/12/4 255/12/4
f 244/5/4 245/5/4 256/5/4
f 255/12/4 244/12/4 256/12/4
f 245/12/4 246/12/4 257/12/4
f 256/5/4 245/5/4 257/5/4
f 246/8/4 247/8/4 258/8/4
f 257/12/4 246/12/4 258/12/4
f 247/7/4 248/7/4 259/7/4
f 258/8/4 247/8/4 259/8/4
f 248/2/4 249/2/4 260/2/4
f 259/7/4 248/7/4 260/7/4
f 249/6/4 250/6/4 261/6/4
f 260/2/4 249/2/4 261/2/4
f 250/4/4 251/4/4 262/4/4
f 261/6/4 250/6/4 262/6/4
f 262/4/4 251/4/4 263/4/4
f 252/2/4 253/2/4 264/2/4
f 253/12/4 254/12/4 265/12/4
f 264/2/4 253/2/4 265/2/4
f 217/12/4 234/12/4 266/12/4
f 234/12/4 255/12/4 266/12/4
f 266/12/4 255/12/4 267/12/4
f 255/1/4 256/1/4 268/1/4
f 267/12/4 255/12/4 268/12/4
f 256/12/4 257/12/4 269/12/4
f 268/1/4 256/1/4 269/1/4
f 257/5/4 258/5/4 270/5/4
f 269/12/4 257/12/4 270/12/4
f 258/12/4 259/12/4 271/12/4
f 270/5/4 258/5/4 271/5/4
f 259/2/4 260/2/4 272/2/4
f 271/12/4 259/12/4 272/12/4
f 260/2/4 261/2/4 272/2/4
f 261/2/4 262/2/4 272/2/4
f 272/2/4 262/2/4 273/2/4
f 273/2/4 262/2/4 274/2/4
f 262/6/4 263/6/4 275/6/4
f 274/2/4 262/2/4 275/2/4
f 263/4/4 264/4/4 276/4/4
f 275/6/4 263/6/4 276/6/4
f 264/12/4 265/12/4 277/12/4
f 276/4/4 264/4/4 277/4/4
f 266/13/4 267/13/4 278/13/4
f 217/12/4 266/12/4 278/12/4
f 267/5/4 268/5/4 279/5/4
f 278/13/4 267/13/4 279/13/4
f 268/1/4 269/1/4 280/1/4
f 279/5/4 268/5/4 280/5/4
f 269/1/4 270/1/4 280/1/4
f 270/13/4 271/13/4 281/13/4
f 271/2/4 272/2/4 281/2/4
f 272/5/4 273/5/4 282/5/4
f 281/2/4 272/2/4 282/2/4
f 273/13/4 274/13/4 283/13/4
f 282/5/4 273/5/4 283/5/4
f 274/2/4 275/2/4 284/2/4
f 283/13/4 274/13/4 284/13/4
f 275/2/4 276/2/4 284/2/4
f 276/6/4 277/6/4 285/6/4
f 284/2/4 276/2/4 285/2/4
f 277/12/4 265/12/4 286/12/4
f 285/6/4 277/6/4 286/6/4
f 281/13/4 282/13/4 287/13/4
f 282/5/4 283/5/4 287/5/4
f 283/3/4 284/3/4 288/3/4
f 287/5/4 283/5/4 288/5/4
f 279/12/4 280/12/4 289/12/4
f 217/12/4 278/12/4 289/12/4
f 278/12/4 279/12/4 289/12/4
f 289/12/4 280/12/4 290/12/4
f 280/1/4 270/1/4 291/1/4
f 290/12/4 280/12/4 291/12/4
f 270/13/4 281/13/4 292/13/4
f 281/13/4 287/13/4 292/13/4
f 287/3/4 288/3/4 293/3/4
f 292/13/4 287/13/4 293/13/4
f 288/3/4 284/3/4 294/3/4
f 293/3/4 288/3/4 294/3/4
f 284/2/4 285/2/4 295/2/4
f 294/3/4 284/3/4 295/3/4
f 285/12/4 286/12/4 296/12/4
f 295/2/4 285/2/4 296/2/4
f 286/12/4 265/12/4 297/12/4
f 296/12/4 286/12/4 297/12/4
f 289/13/4 290/13/4 298/13/4
f 217/12/4 289/12/4 298/12/4
f 290/5/4 291/5/4 299/5/4
f 298/13/4 290/13/4 299/13/4
f 291/1/4 270/1/4 300/1/4
f 299/5/4 291/5/4 300/5/4
f 300/1/4 270/1/4 301/1/4
f 270/13/4 292/13/4 302/13/4
f 301/1/4 270/1/4 302/1/4
f 292/2/4 293/2/4 303/2/4
f 302/13/4 292/13/4 303/13/4
f 293/3/4 294/3/4 304/3/4
f 303/2/4 293/2/4 304/2/4
f 294/13/4 295/13/4 305/13/4
f 304/3/4 294/3/4 305/3/4
f 295/2/4 296/2/4 306/2/4
f 305/13/4 295/13/4 306/13/4
f 306/2/4 296/2/4 307/2/4
f 296/6/4 297/6/4 308/6/4
f 307/2/4 296/2/4 308/2/4
f 297/12/4 265/12/4 309/12/4
f 308/6/4 297/6/4 309/6/4
f 300/1/4 301/1/4 310/1/4
f 298/12/4 299/12/4 310/12/4
f 299/12/4 300/12/4 310/12/4
f 301/12/4 302/12/4 311/12/4
f 310/1/4 301/1/4 311/1/4
f 302/5/4 303/5/4 312/5/4
f 311/12/4 302/12/4 312/12/4
f 303/12/4 304/12/4 313/12/4
f 312/5/4 303/5/4 313/5/4
f 304/2/4 305/2/4 314/2/4
f 313/12/4 304/12/4 314/12/4
f 306/2/4 307/2/4 314/2/4
f 305/2/4 306/2/4 314/2/4
f 314/2/4 307/2/4 315/2/4
f 315/2/4 307/2/4 316/2/4
f 307/6/4 308/6/4 317/6/4
f 316/2/4 307/2/4 317/2/4
f 308/4/4 309/4/4 318/4/4
f 317/6/4 308/6/4 318/6/4
f 309/12/4 265/12/4 319/12/4
f 318/4/4 309/4/4 319/4/4
f 265/12/4 254/12/4 320/12/4
f 319/12/4 265/12/4 320/12/4
f 298/12/4 310/12/4 321/12/4
f 310/12/4 311/12/4 321/12/4
f 311/5/4 312/5/4 322/5/4
f 321/12/4 311/12/4 322/12/4
f 312/12/4 313/12/4 323/12/4
f 322/5/4 312/5/4 323/5/4
f 313/8/4 314/8/4 324/8/4
f 323/12/4 313/12/4 324/12/4
f 314/7/4 315/7/4 325/7/4
f 324/8/4 314/8/4 325/8/4
f 315/2/4 316/2/4 326/2/4
f 325/7/4 315/7/4 326/7/4
f 316/6/4 317/6/4 327/6/4
f 326/2/4 316/2/4 327/2/4
f 317/4/4 318/4/4 328/4/4
f 327/6/4 317/6/4 328/6/4
f 328/4/4 318/4/4 329/4/4
f 319/2/4 320/2/4 330/2/4
f 320/12/4 254/12/4 331/12/4
f 330/2/4 320/2/4 331/2/4
f 254/12/4 218/12/4 332/12/4
f 331/12/4 254/12/4 332/12/4
f 298/12/4 321/12/4 333/12/4
f 333/12/4 321/12/4 334/12/4
f 321/5/4 322/5/4 335/5/4
f 334/12/4 321/12/4 335/12/4
f 324/12/4 325/12/4 336/12/4
f 335/5/4 322/5/4 336/5/4
f 328/12/4 329/12/4 336/12/4
f 323/12/4 324/12/4 336/12/4
f 326/12/4 327/12/4 336/12/4
f 327/12/4 328/12/4 336/12/4
f 322/12/4 323/12/4 336/12/4
f 325/12/4 326/12/4 336/12/4
f 336/12/4 329/12/4 337/12/4
f 329/2/4 330/2/4 338/2/4
f 337/12/4 329/12/4 338/12/4
f 338/2/4 330/2/4 339/2/4
f 331/8/4 332/8/4 340/8/4
f 332/12/4 218/12/4 341/12/4
f 340/8/4 332/8/4 341/8/4
f 333/10/4 334/10/4 342/10/4
f 298/12/4 333/12/4 342/12/4
f 334/12/4 335/12/4 343/12/4
f 342/10/4 334/10/4 343/10/4
f 336/12/4 337/12/4 343/12/4
f 335/12/4 336/12/4 343/12/4
f 343/12/4 337/12/4 344/12/4
f 344/12/4 337/12/4 345/12/4
f 337/2/4 338/2/4 346/2/4
f 345/12/4 337/12/4 346/12/4
f 346/2/4 338/2/4 347/2/4
f 347/2/4 338/2/4 348/2/4
f 339/8/4 340/8/4 349/8/4
f 340/12/4 341/12/4 350/12/4
f 349/8/4 340/8/4 350/8/4
f 342/12/4 343/12/4 351/12/4
f 343/7/4 344/7/4 351/7/4
f 344/10/4 345/10/4 352/10/4
f 351/7/4 344/7/4 352/7/4
f 345/8/4 346/8/4 353/8/4
f 352/10/4 345/10/4 353/10/4
f 346/8/4 347/8/4 353/8/4
f 347/10/4 348/10/4 354/10/4
f 353/8/4 347/8/4 354/8/4
f 348/8/4 349/8/4 355/8/4
f 354/10/4 348/10/4 355/10/4
f 349/12/4 350/12/4 356/12/4
f 355/8/4 349/8/4 356/8/4
f 215/11/4 217/11/4 357/11/4
f 298/12/4 342/12/4 357/12/4
f 355/12/4 356/12/4 357/12/4
f 352/12/4 353/12/4 357/12/4
f 351/12/4 352/12/4 357/12/4
f 354/12/4 355/12/4 357/12/4
f 342/12/4 351/12/4 357/12/4
f 353/12/4 354/12/4 357/12/4
f 217/12/4 298/12/4 357/12/4
f 356/12/4 350/12/4 358/12/4
f 357/12/4 356/12/4 358/12/4
f 218/11/4 216/11/4 358/11/4
f 341/12/4 218/12/4 358/12/4
f 350/12/4 341/12/4 358/12/4
f 213/9/4 215/9/4 359/9/4
f 215/11/4 357/11/4 359/11/4
f 357/11/4 358/11/4 359/11/4
f 358/11/4 216/11/4 360/11/4
f 359/11/4 358/11/4 360/11/4
f 216/9/4 214/9/4 360/9/4
f 211/11/4 213/11/4 361/11/4
f 213/9/4 359/9/4 361/9/4
f 359/9/4 360/9/4 361/9/4
f 360/9/4 214/9/4 362/9/4
f 361/9/4 360/9/4 362/9/4
f 214/11/4 212/11/4 362/11/4
f 211/11/4 361/11/4 363/11/4
f 361/11/4 362/11/4 363/11/4
f 362/11/4 212/11/4 364/11/4
f 363/11/4 362/11/4 364/11/4
f 367/11/5 366/11/5 365/11/5
f 368/11/5 366/11/5 367/11/5
f 377/8/5 370/8/5 369/8/5
f 378/8/5 370/8/5 377/8/5
f 379/2/5 372/2/5 371/2/5
f 380/2/5 372/2/5 379/2/5
f 381/2/5 374/2/5 373/2/5
f 382/2/5 374/2/5 381/2/5
f 383/8/5 376/8/5 375/8/5
f 384/8/5 376/8/5 383/8/5
f 389/8/5 386/8/5 385/8/5
f 390/8/5 386/8/5 389/8/5
f 391/8/5 388/8/5 387/8/5
f 392/8/5 388/8/5 391/8/5
f 393/2/6 394/2/6 401/2/6
f 401/2/6 394/2/6 402/2/6
f 395/4/6 396/4/6 403/4/6
f 403/4/6 396/4/6 404/4/6
f 397/4/6 398/4/6 405/4/6
f 405/4/6 398/4/6 406/4/6
f 399/2/6 400/2/6 407/2/6
f 407/2/6 400/2/6 408/2/6
f 409/2/6 410/2/6 413/2/6
f 413/2/6 410/2/6 414/2/6
f 411/2/6 412/2/6 415/2/6
f 415/2/6 412/2/6 416/2/6
f 417/11/6 418/11/6 419/11/6
f 419/11/6 418/11/6 420/11/6
